<?xml version="1.0" encoding="utf-8"?>
<svg version="1.1" id="Optimized" xmlns="http://www.w3.org/2000/svg" x="0px" y="0px" viewBox="0 0 640 640" style="enable-background:new 0 0 841.8897705 595.2755737;" width="640px" xmlns:bx="https://boxy-svg.com" height="640px"><defs><bx:export><bx:file format="svg"/></bx:export></defs><polygon style="fill: #e8eaed; transform-origin: 310.03px 332.236px;" points="411.768 509.718 441.589 558.781 457.315 513.204"/><path style="fill: #e8eaed; transform-origin: 310.03px 332.236px;" d="M 177.017 234.702 C 175.899 233.604 178.472 243.67 182.054 247.292 C 188.403 253.698 193.363 254.523 196.004 254.629 C 201.848 254.863 209.059 253.174 213.342 251.379 C 217.485 249.611 224.746 245.904 227.495 240.496 C 228.077 239.34 229.668 237.399 228.669 232.604 C 227.911 228.915 225.562 227.624 222.699 227.828 C 219.836 228.022 211.167 230.334 206.974 231.623 C 202.779 232.896 194.139 235.525 190.374 236.342 C 186.617 237.156 178.335 235.964 177.017 234.702 Z"/><path style="fill: #e8eaed; transform-origin: 310.03px 332.236px;" d="M 283.184 355.033 C 281.526 354.43 247.219 340.219 242.356 337.89 C 238.377 335.977 228.619 331.851 224.028 329.978 C 236.96 310.039 245.123 294.993 246.209 292.702 C 248.22 288.509 261.907 261.726 262.227 260.077 C 262.537 258.406 262.926 252.233 262.625 250.767 C 262.324 249.271 257.305 252.146 250.492 254.456 C 243.667 256.757 230.698 265.192 225.688 266.249 C 220.661 267.297 204.594 273.384 196.373 276.112 C 188.151 278.841 172.599 283.587 166.202 285.315 C 159.796 287.042 154.204 287.179 150.621 288.266 C 150.621 288.266 151.098 293.284 152.049 294.789 C 152.99 296.294 156.379 299.983 160.32 301.013 C 164.261 302.05 170.784 301.633 173.755 300.954 C 176.725 300.264 181.869 297.751 182.559 296.653 C 183.257 295.538 182.2 292.101 183.374 291.062 C 184.559 290.034 200.217 286.374 206.128 284.588 C 212.04 282.771 234.668 274.977 237.736 275.375 C 236.764 278.598 218.563 314.65 212.701 325.407 C 206.837 336.161 172.775 383.476 165.523 391.814 C 160.019 398.153 146.68 414.373 142.06 418.033 C 143.225 418.354 151.485 417.646 152.99 416.714 C 162.367 410.938 177.987 391.495 183.016 385.572 C 197.965 368.041 211.099 349.626 221.514 333.822 L 221.525 333.822 C 223.554 334.667 239.958 348.033 244.239 350.995 C 248.519 353.955 265.412 363.38 269.071 364.944 C 272.731 366.527 286.796 373.012 287.388 370.817 C 287.98 368.603 284.844 355.663 283.184 355.033 Z"/><path style="fill-rule: evenodd; clip-rule: evenodd; fill: #e8eaed; transform-origin: 310.03px 332.236px;" d="M 203.909 533.694 C 207.196 535.703 210.301 537.346 213.771 538.99 C 220.71 542.46 228.563 546.112 236.05 548.851 C 246.277 552.686 256.503 555.791 266.73 558.165 C 272.391 559.443 278.6 560.539 284.627 561.452 C 285.175 561.452 301.428 563.461 304.715 563.461 L 321.15 563.461 C 327.542 562.913 333.569 562.548 339.96 561.635 C 345.073 560.904 350.735 559.991 356.213 558.713 C 360.231 557.8 364.431 556.887 368.449 555.608 C 372.284 554.513 376.666 553.052 380.867 551.591 C 383.606 550.678 386.528 549.399 389.45 548.304 C 391.824 547.208 394.746 545.93 397.485 544.834 C 400.772 543.373 404.607 541.364 408.259 539.538 C 411.181 538.077 414.469 536.251 417.573 534.425 C 419.947 533.146 425.426 528.946 428.348 528.946 C 431.635 528.946 433.826 531.868 433.826 534.425 C 433.826 539.721 426.704 541.364 423.417 543.738 C 419.947 546.112 415.747 547.938 412.094 549.947 C 404.79 553.782 397.302 557.069 390.18 559.809 C 380.867 563.278 370.64 566.565 361.509 568.757 C 358.039 569.487 354.57 570.4 351.1 570.948 C 349.274 571.314 330.281 574.235 324.985 574.235 L 300.88 574.235 C 294.488 573.688 287.731 572.957 281.34 572.044 C 275.678 571.131 269.652 570.035 263.991 568.757 C 259.608 567.844 254.86 566.565 250.66 565.287 C 243.355 563.278 236.233 560.722 229.293 557.982 C 216.693 553.234 203.544 547.025 191.126 538.807 C 188.935 537.346 188.752 535.886 188.752 534.242 C 188.752 531.503 190.761 528.946 194.048 528.946 C 196.97 528.946 202.814 533.146 203.909 533.694 Z"/><g transform="matrix(1, 0, 0, 1, -100.779053, 21.480347)" style="transform-origin: 410.81px 310.756px;"><path style="fill:#e8eaed;" d="M639.8383789,180.4025879l-40.7682495-12.975708V48.3634644 c0-3.4697266-2.5567017-5.843811-5.843811-5.843811c-2.5567017,0-84.9176636,28.3059082-91.4918823,30.6799316 c-22.3344727,7.4448242-86.798645,29.7334595-86.798645,29.7334595l-0.000061,0.0002441 c-1.0336304,0.2964478-2.6376953,0.7871704-4.7411499,1.4482422L252.854248,48.8499756 c-1.1881714-0.4193726-2.43396,0.4620972-2.43396,1.7220459v2v104.723877 c-24.4053345,8.1710205-41.8085327,14.0198364-42.7017212,14.335083c-1.6435547,0.5478516-4.2002563,0.9130859-5.6611938,2.921875 c-0.7304688,0.7304688-0.9130859,2.0088501-1.2783203,2.921936V484.456543c0,0.3652344,0.1826172,0.5478516,0.1826172,0.7304688 c1.0957031,2.3740845,3.1044922,3.835022,5.2959595,3.835022c2.7392578,0,208.3677368-69.0298462,212.9332275-70.8560181 c0.2156372-0.0718994,0.458374-0.2409668,0.6971436-0.4380493l218.84198,69.75177 c1.1779175,0.3754883,2.3807373-0.50354,2.3807373-1.7399292V182.1427612 C641.1107178,181.3475952,640.5961304,180.6437988,639.8383789,180.4025879z M410.9730225,409.4003296l-199.0542603,66.2905273 V182.0402222l199.0542603-66.2905273V409.4003296z M587.9303589,55.6682129v108.2130737l-164.4921875-52.3546143 L587.9303589,55.6682129z M567.6870728,385.267334l-10.5206299-38.4284668l-60.5161133-18.3422241l-13.0134277,31.3044434 l-29.2919922-8.8861084l62.1779785-152.5870361l28.5085449,8.6360474l51.9385376,187.1876831L567.6870728,385.267334z"/><polygon style="fill:#e8eaed;" points="507.8375244,300.3788452 547.7670288,312.4828491 529.5562744,247.8833618 &#9;"/></g></svg>