<svg viewBox="0 0 220 79" fill="none" xmlns="http://www.w3.org/2000/svg">
<path d="M184.955 18.4912C184.556 20.1005 182.491 19.1993 183.357 19.3924L170.239 16.1738C169.506 15.9807 169.107 15.2726 169.306 14.6289C169.506 13.9208 170.239 13.5346 170.904 13.7277L184.023 17.0107C184.689 17.1394 185.089 17.8475 184.955 18.4912ZM183.957 25.5721L170.838 22.2892C170.105 22.096 169.373 22.5466 169.24 23.1904C169.04 23.8985 169.506 24.6066 170.172 24.7353L183.291 28.0183C182.425 27.8252 184.489 28.5976 184.889 27.1171C185.089 26.4733 184.689 25.7652 183.957 25.5721ZM180.028 33.1037L170.838 30.7863C170.105 30.5932 169.373 31.0438 169.24 31.6875C169.04 32.3956 169.506 33.1037 170.172 33.2324L179.362 35.5498C178.496 35.3567 180.56 36.1291 180.96 34.6486C181.16 34.0049 180.76 33.2968 180.028 33.1037ZM216.054 5.23058V39.0259C216.054 39.6052 215.654 40.1202 215.055 40.249L189.75 46.3643C189.55 46.4287 189.284 46.4287 189.084 46.3643L163.779 40.249C163.18 40.1202 162.78 39.6052 162.78 39.0259V5.23058C162.78 4.39374 163.579 3.75002 164.445 4.00751L189.417 10.0585L214.389 4.00751C215.255 3.75002 216.054 4.39374 216.054 5.23058ZM188.085 12.3759L165.444 6.90425V37.9959L188.085 43.4675V12.3759ZM213.39 6.90425L190.749 12.3759V43.4675L213.39 37.9959V6.90425ZM209.528 14.6289C209.328 13.9208 208.596 13.5346 207.93 13.7277L194.811 17.0107C194.078 17.2038 193.679 17.9119 193.879 18.5556C194.278 20.1649 196.343 19.2637 195.477 19.4568L208.596 16.1738C209.328 15.9807 209.728 15.2726 209.528 14.6289ZM209.528 23.2547C209.328 22.5466 208.596 22.1604 207.93 22.3535L194.811 25.6365C194.078 25.8296 193.679 26.5377 193.879 27.1814C194.278 28.7264 196.343 27.8895 195.477 28.0826L208.596 24.7997C209.328 24.6066 209.728 23.8985 209.528 23.2547ZM205.599 32.7174C205.399 32.0093 204.667 31.6231 204.001 31.8162L194.811 34.1336C194.078 34.3267 193.679 35.0348 193.879 35.6785C194.278 37.2878 196.343 36.3866 195.477 36.5797L204.667 34.3267C205.399 34.1336 205.799 33.4255 205.599 32.7174Z" fill="#F2B500"/>
<path d="M6.73238 51.1773L13.6415 70.7683H13.9142L20.8233 51.1773H23.7778L15.2324 74.4501H12.3233L3.77784 51.1773H6.73238ZM45.9455 62.8137C45.9455 65.2683 45.5023 67.3895 44.6159 69.1773C43.7295 70.9652 42.5136 72.344 40.9682 73.3137C39.4227 74.2834 37.6576 74.7683 35.6727 74.7683C33.6879 74.7683 31.9227 74.2834 30.3773 73.3137C28.8318 72.344 27.6159 70.9652 26.7295 69.1773C25.8432 67.3895 25.4 65.2683 25.4 62.8137C25.4 60.3592 25.8432 58.238 26.7295 56.4501C27.6159 54.6622 28.8318 53.2834 30.3773 52.3137C31.9227 51.344 33.6879 50.8592 35.6727 50.8592C37.6576 50.8592 39.4227 51.344 40.9682 52.3137C42.5136 53.2834 43.7295 54.6622 44.6159 56.4501C45.5023 58.238 45.9455 60.3592 45.9455 62.8137ZM43.2182 62.8137C43.2182 60.7986 42.8811 59.0978 42.2068 57.7114C41.5401 56.3251 40.6348 55.2758 39.4909 54.5637C38.3545 53.8516 37.0818 53.4955 35.6727 53.4955C34.2636 53.4955 32.9871 53.8516 31.8432 54.5637C30.7068 55.2758 29.8015 56.3251 29.1273 57.7114C28.4606 59.0978 28.1273 60.7986 28.1273 62.8137C28.1273 64.8289 28.4606 66.5296 29.1273 67.916C29.8015 69.3023 30.7068 70.3516 31.8432 71.0637C32.9871 71.7758 34.2636 72.1319 35.6727 72.1319C37.0818 72.1319 38.3545 71.7758 39.4909 71.0637C40.6348 70.3516 41.5401 69.3023 42.2068 67.916C42.8811 66.5296 43.2182 64.8289 43.2182 62.8137ZM69.4114 58.4501H66.5932C66.4265 57.6395 66.1348 56.9273 65.7182 56.3137C65.3091 55.7001 64.8091 55.1849 64.2182 54.7683C63.6348 54.344 62.9871 54.0258 62.275 53.8137C61.5629 53.6016 60.8205 53.4955 60.0477 53.4955C58.6386 53.4955 57.3621 53.8516 56.2182 54.5637C55.0818 55.2758 54.1765 56.3251 53.5023 57.7114C52.8356 59.0978 52.5023 60.7986 52.5023 62.8137C52.5023 64.8289 52.8356 66.5296 53.5023 67.916C54.1765 69.3023 55.0818 70.3516 56.2182 71.0637C57.3621 71.7758 58.6386 72.1319 60.0477 72.1319C60.8205 72.1319 61.5629 72.0258 62.275 71.8137C62.9871 71.6016 63.6348 71.2872 64.2182 70.8705C64.8091 70.4463 65.3091 69.9273 65.7182 69.3137C66.1348 68.6925 66.4265 67.9804 66.5932 67.1773H69.4114C69.1992 68.3667 68.8129 69.4311 68.2523 70.3705C67.6917 71.3099 66.9947 72.1092 66.1614 72.7683C65.328 73.4198 64.3924 73.916 63.3545 74.2569C62.3242 74.5978 61.222 74.7683 60.0477 74.7683C58.0629 74.7683 56.2977 74.2834 54.7523 73.3137C53.2068 72.344 51.9909 70.9652 51.1045 69.1773C50.2182 67.3895 49.775 65.2683 49.775 62.8137C49.775 60.3592 50.2182 58.238 51.1045 56.4501C51.9909 54.6622 53.2068 53.2834 54.7523 52.3137C56.2977 51.344 58.0629 50.8592 60.0477 50.8592C61.222 50.8592 62.3242 51.0296 63.3545 51.3705C64.3924 51.7114 65.328 52.2114 66.1614 52.8705C66.9947 53.522 67.6917 54.3175 68.2523 55.2569C68.8129 56.1887 69.1992 57.2531 69.4114 58.4501ZM74.9199 74.4501H71.9653L80.5108 51.1773H83.4199L91.9653 74.4501H89.0108L82.0562 54.8592H81.8744L74.9199 74.4501ZM76.0108 65.3592H87.9199V67.8592H76.0108V65.3592ZM95.5903 74.4501V51.1773H103.727C105.348 51.1773 106.685 51.4576 107.738 52.0183C108.791 52.5713 109.575 53.3175 110.09 54.2569C110.605 55.1887 110.863 56.2228 110.863 57.3592C110.863 58.3592 110.685 59.1849 110.329 59.8364C109.98 60.488 109.518 61.0031 108.943 61.3819C108.374 61.7607 107.757 62.041 107.09 62.2228V62.4501C107.802 62.4955 108.518 62.7455 109.238 63.2001C109.958 63.6546 110.56 64.3061 111.045 65.1546C111.53 66.0031 111.772 67.041 111.772 68.2683C111.772 69.4349 111.507 70.4842 110.977 71.416C110.446 72.3478 109.609 73.0864 108.465 73.6319C107.321 74.1773 105.833 74.4501 103.999 74.4501H95.5903ZM98.4085 71.9501H103.999C105.84 71.9501 107.147 71.594 107.92 70.8819C108.7 70.1622 109.09 69.291 109.09 68.2683C109.09 67.4804 108.89 66.7531 108.488 66.0864C108.087 65.4122 107.515 64.8743 106.772 64.4728C106.03 64.0637 105.151 63.8592 104.136 63.8592H98.4085V71.9501ZM98.4085 61.4046H103.636C104.484 61.4046 105.249 61.238 105.931 60.9046C106.621 60.5713 107.166 60.1016 107.568 59.4955C107.977 58.8895 108.181 58.1773 108.181 57.3592C108.181 56.3364 107.825 55.469 107.113 54.7569C106.401 54.0372 105.272 53.6773 103.727 53.6773H98.4085V61.4046ZM131.676 51.1773H134.494V66.5864C134.494 68.1773 134.119 69.5978 133.369 70.8478C132.626 72.0902 131.577 73.0713 130.221 73.791C128.865 74.5031 127.274 74.8592 125.448 74.8592C123.623 74.8592 122.032 74.5031 120.676 73.791C119.32 73.0713 118.266 72.0902 117.516 70.8478C116.774 69.5978 116.403 68.1773 116.403 66.5864V51.1773H119.221V66.3592C119.221 67.4955 119.471 68.5069 119.971 69.3933C120.471 70.272 121.183 70.9652 122.107 71.4728C123.039 71.9728 124.153 72.2228 125.448 72.2228C126.744 72.2228 127.857 71.9728 128.789 71.4728C129.721 70.9652 130.433 70.272 130.926 69.3933C131.426 68.5069 131.676 67.4955 131.676 66.3592V51.1773ZM140.122 74.4501V51.1773H142.94V71.9501H153.758V74.4501H140.122ZM160.545 74.4501H157.59L166.136 51.1773H169.045L177.59 74.4501H174.636L167.681 54.8592H167.499L160.545 74.4501ZM161.636 65.3592H173.545V67.8592H161.636V65.3592ZM181.215 74.4501V51.1773H189.079C190.897 51.1773 192.39 51.488 193.556 52.1092C194.723 52.7228 195.587 53.5675 196.147 54.6433C196.708 55.719 196.988 56.9425 196.988 58.3137C196.988 59.6849 196.708 60.9008 196.147 61.9614C195.587 63.022 194.727 63.8554 193.568 64.4614C192.409 65.0599 190.927 65.3592 189.124 65.3592H182.761V62.8137H189.034C190.276 62.8137 191.276 62.6319 192.034 62.2683C192.799 61.9046 193.352 61.3895 193.693 60.7228C194.041 60.0486 194.215 59.2455 194.215 58.3137C194.215 57.3819 194.041 56.5675 193.693 55.8705C193.344 55.1736 192.787 54.6357 192.022 54.2569C191.257 53.8705 190.246 53.6773 188.988 53.6773H184.034V74.4501H181.215ZM192.17 63.9955L197.897 74.4501H194.624L188.988 63.9955H192.17ZM198.903 51.1773H202.13L208.585 62.041H208.857L215.312 51.1773H218.539L210.13 64.8592V74.4501H207.312V64.8592L198.903 51.1773Z" fill="white"/>
<path d="M26.233 13.652C26.0028 11.7088 25.0696 10.2003 23.4332 9.12645C21.7969 8.05259 19.7898 7.51566 17.4119 7.51566C15.6733 7.51566 14.152 7.79691 12.848 8.35941C11.5568 8.92191 10.5469 9.69534 9.81818 10.6797C9.10227 11.6641 8.74432 12.7827 8.74432 14.0355C8.74432 15.0838 8.99361 15.9851 9.49219 16.7394C10.0036 17.4809 10.6555 18.1009 11.4482 18.5995C12.2408 19.0853 13.0717 19.488 13.9411 19.8076C14.8104 20.1144 15.6094 20.3637 16.3381 20.5554L20.3267 21.6293C21.3494 21.8978 22.4872 22.2685 23.7401 22.7415C25.0057 23.2145 26.2138 23.8601 27.3643 24.6783C28.5277 25.4837 29.4865 26.5192 30.2408 27.7848C30.995 29.0505 31.3722 30.6037 31.3722 32.4446C31.3722 34.5668 30.8161 36.4844 29.7038 38.1975C28.6044 39.9105 26.9936 41.2721 24.8714 42.282C22.7621 43.2919 20.1989 43.7969 17.1818 43.7969C14.3693 43.7969 11.9339 43.3431 9.87571 42.4354C7.83026 41.5277 6.21946 40.2621 5.04332 38.6385C3.87997 37.0149 3.22159 35.1293 3.06818 32.9816H7.97727C8.10511 34.4645 8.60369 35.6918 9.47301 36.6634C10.3551 37.6222 11.4673 38.3381 12.8097 38.8111C14.1648 39.2713 15.6222 39.5015 17.1818 39.5015C18.9972 39.5015 20.6271 39.2074 22.0717 38.6194C23.5163 38.0185 24.6605 37.1875 25.5043 36.1265C26.348 35.0526 26.7699 33.7997 26.7699 32.3679C26.7699 31.064 26.4055 30.0029 25.6768 29.1847C24.9482 28.3665 23.9893 27.7017 22.8004 27.1904C21.6115 26.679 20.3267 26.2316 18.946 25.848L14.1136 24.4674C11.0455 23.5853 8.61648 22.326 6.8267 20.6897C5.03693 19.0533 4.14205 16.912 4.14205 14.2657C4.14205 12.0668 4.73651 10.1492 5.92543 8.51282C7.12713 6.86367 8.73793 5.58526 10.7578 4.67759C12.7905 3.75713 15.0597 3.29691 17.5653 3.29691C20.0966 3.29691 22.3466 3.75074 24.3153 4.65841C26.2841 5.5533 27.8438 6.78057 28.9943 8.34023C30.1577 9.89989 30.7713 11.6705 30.8352 13.652H26.233ZM72.3276 23.4702C72.3276 27.6122 71.5797 31.1918 70.084 34.2088C68.5882 37.2259 66.5364 39.5526 63.9284 41.189C61.3205 42.8253 58.3418 43.6435 54.9924 43.6435C51.6429 43.6435 48.6642 42.8253 46.0563 41.189C43.4483 39.5526 41.3965 37.2259 39.9007 34.2088C38.405 31.1918 37.6571 27.6122 37.6571 23.4702C37.6571 19.3282 38.405 15.7486 39.9007 12.7316C41.3965 9.71452 43.4483 7.38782 46.0563 5.75145C48.6642 4.11509 51.6429 3.29691 54.9924 3.29691C58.3418 3.29691 61.3205 4.11509 63.9284 5.75145C66.5364 7.38782 68.5882 9.71452 70.084 12.7316C71.5797 15.7486 72.3276 19.3282 72.3276 23.4702ZM67.7253 23.4702C67.7253 20.0696 67.1564 17.1996 66.0186 14.8601C64.8936 12.5206 63.3659 10.75 61.4355 9.54833C59.5179 8.34662 57.3702 7.74577 54.9924 7.74577C52.6145 7.74577 50.4604 8.34662 48.53 9.54833C46.6124 10.75 45.0847 12.5206 43.9469 14.8601C42.8219 17.1996 42.2594 20.0696 42.2594 23.4702C42.2594 26.8708 42.8219 29.7408 43.9469 32.0803C45.0847 34.4198 46.6124 36.1904 48.53 37.3921C50.4604 38.5938 52.6145 39.1946 54.9924 39.1946C57.3702 39.1946 59.5179 38.5938 61.4355 37.3921C63.3659 36.1904 64.8936 34.4198 66.0186 32.0803C67.1564 29.7408 67.7253 26.8708 67.7253 23.4702ZM80.324 3.83384H86.0002L99.3468 36.4333H99.807L113.154 3.83384H118.83V43.1066H114.381V13.2685H113.997L101.725 43.1066H97.4292L85.1564 13.2685H84.7729V43.1066H80.324V3.83384ZM128.365 43.1066V3.83384H152.067V8.05259H133.121V21.3225H150.839V25.5412H133.121V38.8878H152.374V43.1066H128.365Z" fill="white"/>
</svg>
