<svg width="40" height="32" viewBox="0 0 40 32" fill="none" xmlns="http://www.w3.org/2000/svg">
<rect width="40" height="32" fill="none"/>
<path d="M16.65 10.9583C16.35 12.1711 14.8 11.4919 15.45 11.6374L5.6 9.21189C5.05 9.06636 4.75 8.53273 4.9 8.04762C5.05 7.514 5.6 7.22293 6.1 7.36847L15.95 9.84253C16.45 9.93956 16.75 10.4732 16.65 10.9583ZM15.9 16.2945L6.05 13.8204C5.5 13.6749 4.95 14.0145 4.85 14.4996C4.7 15.0332 5.05 15.5668 5.55 15.6639L15.4 18.1379C14.75 17.9924 16.3 18.5745 16.6 17.4588C16.75 16.9737 16.45 16.44 15.9 16.2945ZM12.95 21.9703L6.05 20.2239C5.5 20.0784 4.95 20.418 4.85 20.9031C4.7 21.4367 5.05 21.9703 5.55 22.0673L12.45 23.8137C11.8 23.6682 13.35 24.2503 13.65 23.1346C13.8 22.6495 13.5 22.1159 12.95 21.9703ZM40 0.964996V26.4333C40 26.8699 39.7 27.258 39.25 27.3551L20.25 31.9636C20.1 32.0121 19.9 32.0121 19.75 31.9636L0.75 27.3551C0.3 27.258 0 26.8699 0 26.4333V0.964996C0 0.334351 0.6 -0.15076 1.25 0.0432847L20 4.60333L38.75 0.0432847C39.4 -0.15076 40 0.334351 40 0.964996ZM19 6.34973L2 2.22629V25.6572L19 29.7806V6.34973ZM38 2.22629L21 6.34973V29.7806L38 25.6572V2.22629ZM35.1 8.04762C34.95 7.514 34.4 7.22293 33.9 7.36847L24.05 9.84253C23.5 9.98807 23.2 10.5217 23.35 11.0068C23.65 12.2196 25.2 11.5404 24.55 11.686L34.4 9.21189C34.95 9.06636 35.25 8.53273 35.1 8.04762ZM35.1 14.5481C34.95 14.0145 34.4 13.7234 33.9 13.869L24.05 16.343C23.5 16.4886 23.2 17.0222 23.35 17.5073C23.65 18.6716 25.2 18.0409 24.55 18.1865L34.4 15.7124C34.95 15.5669 35.25 15.0332 35.1 14.5481ZM32.15 21.6793C32 21.1456 31.45 20.8546 30.95 21.0001L24.05 22.7465C23.5 22.892 23.2 23.4257 23.35 23.9108C23.65 25.1235 25.2 24.4444 24.55 24.5899L31.45 22.892C32 22.7465 32.3 22.2129 32.15 21.6793Z" fill="#e8eaed" stroke="#e8eaed" stroke-width="0.8" />
</svg>
